<?xml version="1.0" encoding="utf-8"?>
<!-- Generator: Adobe Illustrator 16.0.4, SVG Export Plug-In . SVG Version: 6.00 Build 0)  -->
<!DOCTYPE svg PUBLIC "-//W3C//DTD SVG 1.1//EN" "http://www.w3.org/Graphics/SVG/1.1/DTD/svg11.dtd">
<svg version="1.1" id="Vrstva_1" xmlns="http://www.w3.org/2000/svg" xmlns:xlink="http://www.w3.org/1999/xlink" x="0px" y="0px"
	 width="174px" height="65.5px" viewBox="0 0 174 65.5" enable-background="new 0 0 174 65.5" xml:space="preserve">
<g>
	<g>
		<rect x="7.398" y="10.177" fill="#101A98" width="67.217" height="22.149"/>
		<rect x="10.013" y="10.942" fill="#101A98" width="67.595" height="22.139"/>
		<rect x="12.628" y="11.708" fill="#101A98" width="67.973" height="22.127"/>
		<rect x="15.243" y="12.473" fill="#101A98" width="68.351" height="22.115"/>
		<rect x="17.858" y="13.239" fill="#101A98" width="68.729" height="22.104"/>
		<rect x="20.473" y="14.004" fill="#101A98" width="69.107" height="22.093"/>
		<rect x="23.088" y="14.769" fill="#101A98" width="69.485" height="22.082"/>
		<rect x="25.703" y="15.534" fill="#101A98" width="69.863" height="22.071"/>
		<rect x="28.318" y="16.299" fill="#101A98" width="70.241" height="22.06"/>
		<rect x="30.933" y="17.065" fill="#101A98" width="70.619" height="22.048"/>
		<rect x="33.548" y="17.83" fill="#101A98" width="70.997" height="22.038"/>
		<rect x="36.163" y="18.595" fill="#101A98" width="71.375" height="22.025"/>
		<rect x="38.778" y="19.361" fill="#101A98" width="71.753" height="22.015"/>
		<rect x="41.393" y="20.126" fill="#101A98" width="72.131" height="22.003"/>
		<rect x="44.008" y="20.891" fill="#101A98" width="72.509" height="21.993"/>
		<rect x="46.623" y="21.656" fill="#101A98" width="72.887" height="21.981"/>
		<rect x="49.238" y="22.421" fill="#101A98" width="73.265" height="21.971"/>
		<rect x="51.854" y="23.187" fill="#101A98" width="73.643" height="21.959"/>
		<rect x="54.468" y="23.953" fill="#101A98" width="74.021" height="21.947"/>
		<rect x="57.083" y="24.717" fill="#101A98" width="74.398" height="21.937"/>
		<rect x="59.699" y="25.483" fill="#101A98" width="74.776" height="21.925"/>
		<rect x="62.314" y="26.248" fill="#101A98" width="75.154" height="21.914"/>
		<rect x="64.928" y="27.013" fill="#101A98" width="75.533" height="21.903"/>
		<rect x="67.543" y="27.779" fill="#101A98" width="75.91" height="21.892"/>
		<rect x="70.159" y="28.544" fill="#101A98" width="76.288" height="21.88"/>
		<rect x="72.774" y="29.31" fill="#101A98" width="76.666" height="21.869"/>
		<rect x="75.389" y="30.075" fill="#101A98" width="77.044" height="21.858"/>
		<rect x="78.004" y="30.84" fill="#101A98" width="77.422" height="21.846"/>
		<rect x="80.619" y="31.605" fill="#101A98" width="77.8" height="21.835"/>
		<rect x="83.233" y="32.371" fill="#101A98" width="78.179" height="21.824"/>
		<rect x="85.849" y="33.135" fill="#101A98" width="78.556" height="21.813"/>
		<rect x="88.464" y="33.901" fill="#101A98" width="78.934" height="21.802"/>
	</g>
	<g>
		<path fill="#FFFFFF" d="M22.23,30.055V17.563c0-0.248-0.099-0.671-0.424-0.671c-0.521,0-0.745,1.069-0.871,1.864
			c-0.347,2.166-1.268,5.028-3.509,5.028c-2.237,0-3.159-2.862-3.509-5.028c-0.123-0.795-0.347-1.864-0.87-1.864
			c-0.324,0-0.422,0.423-0.422,0.671v12.492H9.739V12.637h4.828l2.064,6.644c0.15,0.5,0.375,1.118,0.796,1.118
			c0.425,0,0.649-0.618,0.799-1.118l2.064-6.644h4.828v17.418H22.23z"/>
		<path fill="#FFFFFF" d="M28.35,12.637h2.886v11.148c0,1.839,1.544,3.384,3.383,3.384c1.843,0,3.386-1.544,3.386-3.384V12.637
			h2.887v13.562H39.92v1.914h-0.945v0.972h-1.941v0.97h-4.825v-0.97h-1.941v-0.972h-0.945v-1.914H28.35V12.637z"/>
		<path fill="#FFFFFF" d="M44.374,12.637h2.886v13.062c0,1.221,0.473,1.693,1.693,1.693h6.369v2.663H44.374V12.637z"/>
		<path fill="#FFFFFF" d="M61.468,30.055h-2.886V16.917c0-1.094-0.548-1.618-1.689-1.618H53.58v-2.662h12.889v2.662h-3.308
			c-1.122,0-1.693,0.524-1.693,1.618V30.055z"/>
		<path fill="#FFFFFF" d="M71.222,30.055h-2.887V12.637h2.887V30.055z"/>
	</g>
</g>
<g>
	<path fill="#FFB056" d="M100.415,46.789v0.972h-5.998v5.821h-2.885V36.164h8.883v0.972h1.915v0.969h0.972v1.942h0.97v3.856h-0.97
		v1.941h-0.972v0.946H100.415z M95.858,38.951c-0.944,0-1.442,0.697-1.442,1.367v3.236c0,0.697,0.548,1.442,1.442,1.442h1.895
		c1.937,0,3.405-1.068,3.405-3.032c0-1.969-1.468-3.014-3.405-3.014H95.858z"/>
	<path fill="#FFB056" d="M106.511,36.164h2.885v13.062c0,1.221,0.473,1.693,1.691,1.693h6.372v2.663h-10.948V36.164z"/>
	<path fill="#FFB056" d="M124.101,49.45c-0.822,0-1.343,0.5-1.594,1.17l-1.044,2.961h-2.761v-2.911h0.97V47.76h0.972v-1.917h0.969
		v-2.911h0.97v-1.917h0.945v-2.911h0.973v-1.94h3.855v1.94h0.972v2.911h0.969v1.917h0.973v2.911h0.969v1.917h0.945v2.911h0.971
		v2.911h-2.738l-1.095-3.01c-0.272-0.598-0.769-1.122-1.441-1.122H124.101z M127.484,42.062c-0.224-0.72-0.523-1.394-1.044-1.394
		c-0.524,0-0.822,0.673-1.047,1.394l-1.021,3.285c-0.075,0.225-0.098,0.397-0.098,0.571c0,0.945,0.997,1.244,2.166,1.244
		s2.162-0.299,2.162-1.244c0-0.174-0.023-0.347-0.098-0.571L127.484,42.062z"/>
	<path fill="#FFB056" d="M138.084,44.874c0,3.358,2.387,5.698,5.746,5.698c1.445,0,2.614-0.397,3.709-1.394
		c0.67-0.599,1.418-1.394,2.639-1.394h1.367v1.912h-0.97v0.974h-0.945v0.969h-0.973v0.972h-1.941v0.97h-5.797v-0.97h-1.915V51.64
		h-0.972v-0.969h-0.97v-0.974h-0.972v-1.912h-0.945v-5.82h0.945v-1.918h0.972v-0.97h0.97v-0.972h0.972v-0.969h1.915v-0.972h5.797
		v0.972h1.941v0.969h0.973v0.972h0.945v0.97h0.97v1.918h-1.367c-1.221,0-1.968-0.8-2.639-1.396
		c-1.095-0.996-2.264-1.394-3.709-1.394C140.471,39.175,138.084,41.514,138.084,44.874z"/>
	<path fill="#FFB056" d="M164.559,44.55c0,0.993-0.649,1.343-1.968,1.343h-3.856c-1.217,0-1.693,0.571-1.693,1.792v1.517
		c0,1.221,0.476,1.716,1.693,1.716h6.545v2.663h-11.12V36.164h11.12v2.662h-6.545c-1.217,0-1.693,0.449-1.693,1.693v0.969
		c0,1.245,0.476,1.744,1.693,1.744h3.856C163.909,43.231,164.559,43.554,164.559,44.55z"/>
</g>
</svg>
