<svg id="Layer_1" data-name="Layer 1" xmlns="http://www.w3.org/2000/svg" viewBox="0 0 147.86 95.22"><defs><style>.cls-1{fill:#008fd5;}.cls-2{fill:#fff;}</style></defs><title>logo_727_CMYK_ENG</title><path class="cls-1" d="M322.37,339.84l-7.08-9.76a3.75,3.75,0,0,0-2.69-1.37H297.85l1-1.37,6-8.29a2.51,2.51,0,0,0,0-2.75L296.71,305a3.76,3.76,0,0,0-2.7-1.37H278.07a3.75,3.75,0,0,0-2.7,1.38l-8.15,11.24a2.5,2.5,0,0,0,0,2.75l6,8.29,1,1.38H259.92a3.76,3.76,0,0,0-2.7,1.38l-7.08,9.76a2.51,2.51,0,0,0,0,2.75l19.6,27a2.2,2.2,0,0,0,3.5,0l8.33-11.49h9l8.76,11.49a2.21,2.21,0,0,0,3.47,0l19.62-27A2.5,2.5,0,0,0,322.37,339.84Zm-50.88,24.63-16.87-23.26,5.86-8.08h11.61l-4.94,6.81a2.16,2.16,0,0,0,0,2.57l10.12,14Zm9.26-10.78-9-12.48,15.08-20.79a2.22,2.22,0,0,0-3.59-2.6l-5.69,7.85-5.8-8,6.93-9.56h14.82l6.93,9.56-16.16,22.28a2.22,2.22,0,0,0,3.59,2.6l6.77-9.33,5.8,8-9.05,12.48H280.75ZM301,364.47c-1.6-2.21-4.78-6-6.23-8l10-13.82a2.27,2.27,0,0,0,0-2.88L300,333.13h12l5.86,8.08Z" transform="translate(-214.32 -303.67)"/><path class="cls-2" d="M226.18,389.65a5.37,5.37,0,0,0-1.75-1,11.28,11.28,0,0,0-2.48-.55c-0.7-.08-1.27-0.16-1.71-0.26a3.84,3.84,0,0,1-1-.31,0.8,0.8,0,0,1-.38-0.36,1.51,1.51,0,0,1-.1-0.59,1.11,1.11,0,0,1,.56-1.05,5.51,5.51,0,0,1,2.41-.35,18.64,18.64,0,0,1,2.54.16,15.07,15.07,0,0,1,1.93.37l0.2,0.06,0.87-3.64-0.17-.06a13.24,13.24,0,0,0-2.43-.58,19.38,19.38,0,0,0-2.92-.22,14.88,14.88,0,0,0-3.25.31,6.1,6.1,0,0,0-2.34,1,4.34,4.34,0,0,0-1.41,1.83,7,7,0,0,0-.47,2.69,5.57,5.57,0,0,0,.33,2,3.48,3.48,0,0,0,1,1.43,4.91,4.91,0,0,0,1.67.88,12,12,0,0,0,2.33.46,14.71,14.71,0,0,1,1.83.28,3.76,3.76,0,0,1,1,.37,0.93,0.93,0,0,1,.41.42,1.62,1.62,0,0,1,.1.6,1.45,1.45,0,0,1-.14.69,1,1,0,0,1-.45.41,2.74,2.74,0,0,1-.92.24A14.12,14.12,0,0,1,220,395a18.18,18.18,0,0,1-2.5-.16,17,17,0,0,1-2-.37l-0.2-.05L214.46,398l0.17,0.06a13.2,13.2,0,0,0,2.46.58,20.16,20.16,0,0,0,3,.22,17.72,17.72,0,0,0,3.34-.27,6.24,6.24,0,0,0,2.35-.92,3.86,3.86,0,0,0,1.39-1.73,6.94,6.94,0,0,0,.44-2.64A4.66,4.66,0,0,0,226.18,389.65Zm2.83-4.24h5.51v13.15h4.23V385.41h5.49v-3.74H229v3.74Zm28.15,6.42c0,0.54,0,1-.06,1.42a1.82,1.82,0,0,1-.33.93,1.7,1.7,0,0,1-.87.56,6.18,6.18,0,0,1-1.79.2,6.05,6.05,0,0,1-1.77-.2,1.7,1.7,0,0,1-.86-0.56,1.84,1.84,0,0,1-.33-0.93c0-.4-0.06-0.88-0.06-1.42V381.67h-4.25v12.08a5.51,5.51,0,0,0,.52,2.54,4,4,0,0,0,1.49,1.59,6.44,6.44,0,0,0,2.29.79,20.45,20.45,0,0,0,5.92,0,6.46,6.46,0,0,0,2.31-.79,4,4,0,0,0,1.49-1.59,5.52,5.52,0,0,0,.52-2.54V381.67h-4.23v10.16Zm22.41-8.44A5.51,5.51,0,0,0,277,382a14.63,14.63,0,0,0-3.5-.37h-7.08v16.89h7.08a13.42,13.42,0,0,0,3.51-.41,5.66,5.66,0,0,0,2.52-1.41,6.17,6.17,0,0,0,1.51-2.64,14.29,14.29,0,0,0,.49-4.07,14.07,14.07,0,0,0-.49-4A6,6,0,0,0,279.56,383.39Zm-2.66,9.22a2.94,2.94,0,0,1-.61,1.4,2.08,2.08,0,0,1-1.18.63,10.49,10.49,0,0,1-2,.16h-2.42v-9.39h2.42a12.32,12.32,0,0,1,2,.14,2.08,2.08,0,0,1,1.18.58,2.7,2.7,0,0,1,.61,1.37,14.15,14.15,0,0,1,.19,2.59A13.7,13.7,0,0,1,276.91,392.61Zm66.05,0a13.14,13.14,0,0,0,2.17-2,5.14,5.14,0,0,0,1-1.92,8.88,8.88,0,0,0,.26-2.26,7,7,0,0,0-.39-2.53,3.44,3.44,0,0,0-1.22-1.6,5,5,0,0,0-2-.79,15.54,15.54,0,0,0-2.76-.22,20.06,20.06,0,0,0-3.13.24h0a15.05,15.05,0,0,0-2.54.6l-0.17.06,0.9,3.62,0.2-.06c0.25-.08.55-0.15,0.89-0.23s0.72-.14,1.1-0.2l1.19-.14c0.4,0,.79-0.06,1.16-0.06a6.16,6.16,0,0,1,1.16.09,1.81,1.81,0,0,1,.7.27,1,1,0,0,1,.35.48,2.64,2.64,0,0,1,.12.87,6,6,0,0,1-.07.95,2.41,2.41,0,0,1-.32.83,5,5,0,0,1-.77,1c-0.35.35-.83,0.78-1.43,1.28s-1.37,1.1-2.28,1.79l-3.31,2.48-0.08.06v3.4H346.5v-3.74h-6.67C341.1,394,342.15,393.22,343,392.6ZM309.05,383a5.79,5.79,0,0,0-2.59-1.39,14.51,14.51,0,0,0-3.52-.38,14.66,14.66,0,0,0-3.54.38h0a5.71,5.71,0,0,0-2.59,1.39,6.16,6.16,0,0,0-1.57,2.69,14.57,14.57,0,0,0-.52,4.21,15.13,15.13,0,0,0,.52,4.29A6.52,6.52,0,0,0,296.8,397a5.77,5.77,0,0,0,2.59,1.47,13.46,13.46,0,0,0,3.54.42,13.29,13.29,0,0,0,3.53-.42,5.84,5.84,0,0,0,2.59-1.47,6.48,6.48,0,0,0,1.58-2.77,15.13,15.13,0,0,0,.52-4.29,14.53,14.53,0,0,0-.52-4.21A6.09,6.09,0,0,0,309.05,383Zm-2.53,9.66a3.18,3.18,0,0,1-.54,1.49,1.82,1.82,0,0,1-1.08.65,11.45,11.45,0,0,1-3.95,0h0a1.83,1.83,0,0,1-1.08-.65,3.17,3.17,0,0,1-.54-1.49,19.36,19.36,0,0,1-.15-2.71,18.12,18.12,0,0,1,.15-2.64,2.92,2.92,0,0,1,.54-1.41,1.77,1.77,0,0,1,1.08-.6,13.24,13.24,0,0,1,4,0,1.78,1.78,0,0,1,1.08.6,3,3,0,0,1,.54,1.41,18.52,18.52,0,0,1,.15,2.64A19.59,19.59,0,0,1,306.53,392.7ZM286,398.56h4.21V381.67H286v16.89Zm32.81-13.15h7.84c-0.26.36-.53,0.78-0.8,1.25s-0.73,1.28-1.1,2-0.76,1.51-1.13,2.33-0.73,1.65-1.09,2.47-0.7,1.66-1,2.47-0.63,1.61-.9,2.35l-0.1.27h4.76l0-.14c0.25-.75.56-1.59,0.91-2.5s0.74-1.85,1.15-2.81,0.84-1.94,1.29-2.9,0.89-1.91,1.32-2.8,0.85-1.71,1.25-2.45l0.26-.48v-2.81H318.84v3.74Zm30.68-3.74v3.74h7.84c-0.26.36-.53,0.78-0.8,1.25s-0.73,1.28-1.11,2-0.76,1.51-1.13,2.33-0.74,1.65-1.09,2.47-0.7,1.66-1,2.47-0.63,1.61-.9,2.35l-0.1.27H356l0-.14c0.25-.75.56-1.59,0.91-2.5s0.74-1.85,1.14-2.81,0.84-1.94,1.29-2.9,0.89-1.91,1.32-2.8,0.85-1.71,1.25-2.45l0.26-.48v-2.81H349.52Z" transform="translate(-214.32 -303.67)"/></svg>